<?xml version="1.0" standalone="no"?>
<!DOCTYPE svg PUBLIC "-//W3C//DTD SVG 20010904//EN"
 "http://www.w3.org/TR/2001/REC-SVG-20010904/DTD/svg10.dtd">
<svg version="1.0" xmlns="http://www.w3.org/2000/svg"
 width="263.000000pt" height="263.000000pt" viewBox="0 0 263.000000 263.000000"
 preserveAspectRatio="xMidYMid meet">
<metadata>
Created by potrace 1.11, written by Peter Selinger 2001-2013
</metadata>
<g transform="translate(0.000000,263.000000) scale(0.100000,-0.100000)"
fill="#000000" stroke="none">
<path d="M130 2604 c-45 -20 -77 -50 -101 -96 -18 -36 -19 -76 -19 -1188 0
-1016 2 -1155 15 -1188 21 -49 52 -81 100 -103 38 -18 93 -19 1193 -19 1114 0
1154 1 1190 19 47 24 77 56 97 103 13 33 15 172 15 1188 0 1112 -1 1152 -19
1188 -24 47 -56 77 -103 97 -33 13 -171 15 -1185 15 -1003 -1 -1152 -3 -1183
-16z"/>
</g>
</svg>
