<svg xmlns="http://www.w3.org/2000/svg" viewBox="0 0 34.3 34"><title>logo</title><path fill="#492588" d="M34.1 2.8C33.8 1.1 32.3 0 30.7 0c-2 0-3.6 1.6-3.6 3.6 0 .8.3 1.5.7 2.2l-10 10.9a8.98 8.98 0 0 0-10.9-6.5C2 11.3-.9 16.2.3 21.1c.9 3.5 3.8 6.2 7.4 6.7L3.9 32c-.4.5-.4 1.3.2 1.7.2.2.4.3.7.3h25.5c.7 0 1.2-.6 1.2-1.2V7.1c1.9-.5 3.1-2.4 2.6-4.3zM19 25.2c.4.4.4 1 0 1.4s-1 .4-1.4 0L16 25.1l-1.6 1.6c-.4.4-1 .4-1.4 0-.4-.4-.4-1 0-1.4l1.6-1.6-1.6-1.6c-.4-.4-.4-1 0-1.4.4-.4 1-.4 1.4 0l1.6 1.6 1.6-1.6c.4-.4 1-.4 1.4 0 .4.4.4 1 0 1.4l-1.6 1.6 1.6 1.5z"/></svg>