<svg xmlns="http://www.w3.org/2000/svg" viewBox="0 0 161 214.28"><defs><style>.c{fill:#282828}</style></defs><title>isologo</title><rect width="160" height="160" x=".5" y=".5" fill="#723cf5" stroke="#723cf5" stroke-miterlimit="10" rx="12.03" ry="12.03"/><path fill="#fff" d="M130.7 17.43a13.33 13.33 0 0 0-10.64 21.39L83.11 79.29a33.56 33.56 0 1 0-37.56 41.14L31.38 136a4.55 4.55 0 0 0 3.36 7.62h94.45a4.55 4.55 0 0 0 4.55-4.55v-95.3a13.34 13.34 0 0 0-3-26.34zM80 117.26a9.56 9.56 0 1 1 9.55-9.56 9.56 9.56 0 0 1-9.55 9.56z"/><path d="M35 211.06a12.2 12.2 0 0 1-.38-2.92v-2.45a9.23 9.23 0 0 0-1.3-5.05 7.17 7.17 0 0 0-4.25-2.91 9.53 9.53 0 0 0 4-3 7.32 7.32 0 0 0 1.36-4.44 8.78 8.78 0 0 0-3.22-7.29c-2.14-1.74-5.12-2.6-8.93-2.6H10.73v33.4h6.69v-13.34h5.32a5.17 5.17 0 0 1 3.87 1.39 5.33 5.33 0 0 1 1.39 3.88v2.36a22 22 0 0 0 .26 3.28 3.74 3.74 0 0 0 1.18 2.43h6.9v-.48a4 4 0 0 1-1.34-2.26zm-8.66-16.95a6.22 6.22 0 0 1-4.19 1.19h-4.73v-9.72h4.86a5.6 5.6 0 0 1 4.07 1.36 4.82 4.82 0 0 1 1.39 3.64 4.4 4.4 0 0 1-1.38 3.53zm39.77-8.53h9.4v28.22h6.69v-28.22h9.54v-5.15H66.11v5.15zm49.03 16.69a6.79 6.79 0 0 1-1.81 5.11 6.7 6.7 0 0 1-4.9 1.77 6.57 6.57 0 0 1-4.84-1.77 6.86 6.86 0 0 1-1.79-5.11v-21.84h-6.71v21.84a11 11 0 0 0 3.7 8.83 14.27 14.27 0 0 0 9.64 3.18 14.43 14.43 0 0 0 9.69-3.18 11 11 0 0 0 3.74-8.83v-21.84h-6.72zm34.34-18.91c-2.2-2-5.22-2.93-9-2.93h-12.82v33.37h6.69v-12.1h6.08q5.74 0 9-2.91a10.67 10.67 0 0 0 0-15.43zM144.67 195a5.61 5.61 0 0 1-4.24 1.52h-6.08v-11h6.08a5.5 5.5 0 0 1 4.25 1.57 5.72 5.72 0 0 1 1.43 4 5.44 5.44 0 0 1-1.44 3.91zm-94.43-14.57L38.99 213.8h6.99l2.24-7.2 1.66-5.25 3.71-11.75h.14l3.69 11.75 1.62 5.25 2.27 7.2h6.99l-11.21-33.37h-6.85z" class="c"/></svg>